# xmcd
# 
# Track frame offsets:
#     150
#     19872
#     33174
#     45358
#     66404
#     87451
#     108495
#     123986
#     137989
#     154604
#     167343
#     187558
#     209851
#     221196
#     231032
#     246544
#     269803
#     279774
#     295142
#     322003
#     343604
# 
# Disc length: 4795
# 
# Revision: 1
# Processed by: cddbd v1.5.2PL0 Copyright (c) Steve Scherf et al.
# Submitted via: BonkEnc v1.0
# 
DISCID=3f12b915
DTITLE=Various Artist - Big Tunes 3
DYEAR=0
DGENRE=House
TTITLE0=Proper Eductaion (Club Mix) - Eric Prydz vs Floyd
TTITLE1=Put Your Hands Up For Detroit (D12 Mix) - Fedde Le Grand Feat. King Cordy and Bizarre
TTITLE2=PATT (Party All The Time) (Fedde Le Grand Remix) - Sharam
TTITLE3=I Love It (Bag Raiders Remix) - Sneaky Sound System
TTITLE4=Bimbo Nation (Tonite Only's Fuck Tomorrow Vocal Mix) - TV Rock Feat. Nancy Vice
TTITLE5=Lost (D. Ramirez Lost In Rave Mix) - Roger Sanchez
TTITLE6=Elektro (Oulwork Mix) - Oulwork Feat. Mr. Gee
TTITLE7=Love Don't Let Me Go  - David Guetta vs The Egg
TTITLE8=At Night - Dave Spoon
TTITLE9=Blow (Sidney Samson Remix) - Don Diablo
TTITLE10=Disco Mafia (Mason Mix) - Age Of Steam
TTITLE11=Junk (D. Ramirez Remix) - Ferry Corsten
TTITLE12=This Beat Is Rocking - Erick E
TTITLE13=i Don't Like Your Sound - Daagard and Morane
TTITLE14=Fuck To The Bass - Tomy Trash and Tom Piper
TTITLE15=Give It Back (Dirty South Mix) - Gaelle
TTITLE16=Yeah Yeah (D. Ramirez Remix) - Bodyrox Feat. Luciana
TTITLE17=Bounce - Steve N King
TTITLE18=Shake (Noiz Black Remix) - Chris Lake and Micky Slim
TTITLE19=A Bit Patchy (Eric Prydz Mix) - Switch
TTITLE20=Body Language (Tocadisco Remix) - M.A.N.D.Y. vs Booka Shade
EXTD=
EXTT0=
EXTT1=
EXTT2=
EXTT3=
EXTT4=
EXTT5=
EXTT6=
EXTT7=
EXTT8=
EXTT9=
EXTT10=
EXTT11=
EXTT12=
EXTT13=
EXTT14=
EXTT15=
EXTT16=
EXTT17=
EXTT18=
EXTT19=
EXTT20=
PLAYORDER=
